<svg xmlns="http://www.w3.org/2000/svg" version="1.1" xmlns:xlink="http://www.w3.org/1999/xlink" width="256" height="256"><svg width="256" height="256" viewBox="0 0 256 256" fill="none" xmlns="http://www.w3.org/2000/svg">
<rect width="256" height="256" fill="#E8EAED"></rect>
<path d="M74.3 181.9C67.86 181.9 62.0267 181.153 56.8 179.66C51.6667 178.073 47.0933 175.833 43.08 172.94C39.0667 169.953 35.4733 166.453 32.3 162.44L46.72 146.06C51.3867 152.313 56.0533 156.513 60.72 158.66C65.48 160.807 70.38 161.88 75.42 161.88C77.94 161.88 80.2267 161.553 82.28 160.9C84.3333 160.247 85.92 159.313 87.04 158.1C88.16 156.793 88.72 155.207 88.72 153.34C88.72 151.94 88.3467 150.68 87.6 149.56C86.9467 148.44 86.0133 147.46 84.8 146.62C83.5867 145.78 82.14 145.033 80.46 144.38C78.78 143.633 77.0067 143.027 75.14 142.56C73.2733 142 71.36 141.533 69.4 141.16C63.9867 139.947 59.2733 138.453 55.26 136.68C51.2467 134.907 47.8867 132.76 45.18 130.24C42.5667 127.627 40.6067 124.687 39.3 121.42C37.9933 118.06 37.34 114.327 37.34 110.22C37.34 105.833 38.32 101.82 40.28 98.18C42.3333 94.4467 45.04 91.2733 48.4 88.66C51.8533 85.9533 55.82 83.9 60.3 82.5C64.78 81.0067 69.4467 80.26 74.3 80.26C80.74 80.26 86.2467 80.96 90.82 82.36C95.4867 83.6667 99.4533 85.58 102.72 88.1C106.08 90.62 108.927 93.6533 111.26 97.2L96.56 111.34C94.6 108.913 92.4533 106.907 90.12 105.32C87.88 103.733 85.4533 102.52 82.84 101.68C80.32 100.84 77.7067 100.42 75 100.42C72.2 100.42 69.7733 100.793 67.72 101.54C65.76 102.193 64.22 103.173 63.1 104.48C61.98 105.693 61.42 107.187 61.42 108.96C61.42 110.547 61.8867 111.9 62.82 113.02C63.7533 114.14 65.0133 115.167 66.6 116.1C68.1867 116.94 70.0067 117.687 72.06 118.34C74.1133 118.9 76.26 119.367 78.5 119.74C83.6333 120.767 88.2533 122.12 92.36 123.8C96.56 125.48 100.153 127.533 103.14 129.96C106.22 132.387 108.553 135.28 110.14 138.64C111.82 141.907 112.66 145.733 112.66 150.12C112.66 156.933 110.98 162.72 107.62 167.48C104.353 172.147 99.8267 175.74 94.04 178.26C88.3467 180.687 81.7667 181.9 74.3 181.9ZM130.55 180.5V82.5H171.57C178.757 82.5 185.337 83.7133 191.31 86.14C197.284 88.4733 202.417 91.8333 206.71 96.22C211.097 100.607 214.457 105.787 216.79 111.76C219.124 117.733 220.29 124.313 220.29 131.5C220.29 138.687 219.124 145.313 216.79 151.38C214.457 157.353 211.097 162.533 206.71 166.92C202.417 171.213 197.284 174.573 191.31 177C185.337 179.333 178.757 180.5 171.57 180.5H130.55ZM154.35 164.26L151.13 159.5H170.87C174.79 159.5 178.29 158.847 181.37 157.54C184.45 156.14 187.064 154.227 189.21 151.8C191.45 149.373 193.177 146.433 194.39 142.98C195.604 139.527 196.21 135.7 196.21 131.5C196.21 127.3 195.604 123.473 194.39 120.02C193.177 116.567 191.45 113.627 189.21 111.2C187.064 108.773 184.45 106.907 181.37 105.6C178.29 104.2 174.79 103.5 170.87 103.5H150.71L154.35 99.02V164.26Z" fill="#202124"></path>
</svg><style>@media (prefers-color-scheme: light) { :root { filter: none; } }
@media (prefers-color-scheme: dark) { :root { filter: none; } }
</style></svg>