<svg width="1093" height="1093" viewBox="0 0 1093 1093" fill="none" xmlns="http://www.w3.org/2000/svg">
<path d="M526.767 195.203C450.267 200.993 376.722 230.312 323.505 276.015C280.142 313.342 251.069 351.408 228.525 400.191C193.17 476.445 185.779 554.67 206.351 634.497C232.96 737.853 306.997 825.195 403.947 867.572C451.129 888.268 496.832 898 545.985 898C656.24 898 760.705 845.275 827.966 755.716C874.409 693.875 898.184 622.918 898.184 546.417C898.184 513.525 895.474 493.322 886.481 460.554C868.249 394.278 836.22 340.074 787.067 292.277C734.096 240.906 662.769 206.537 590.58 197.667C575.304 195.696 538.101 194.341 526.767 195.203ZM587.5 239.428C634.558 246.204 683.465 265.791 723.132 293.632C769.697 326.277 810.35 378.386 832.647 434.068C843.734 461.539 852.604 498.866 855.191 528.554C857.655 557.873 853.097 597.91 843.118 632.403C840.778 640.534 838.56 648.418 838.191 649.896C837.821 651.498 837.205 652.729 836.713 652.729C836.343 652.606 831.292 644.476 825.502 634.497C819.836 624.519 808.502 605.055 800.372 591.135C792.364 577.214 778.567 553.439 769.697 538.163C749.002 502.192 719.559 451.93 717.711 449.097C716.356 447.249 714.139 450.329 700.218 473.735C691.349 488.518 682.726 502.931 681.124 505.764L678.167 511.061L665.972 490.981C659.319 480.018 645.029 455.996 634.189 437.763C623.348 419.408 602.652 384.792 588.362 360.77C573.949 336.748 559.043 311.494 555.224 304.719C551.282 297.943 547.71 292.03 547.217 291.414C546.231 290.429 538.594 302.501 522.825 329.357C514.572 343.523 499.543 368.9 469.484 419.285C450.636 451.068 433.267 480.51 423.781 497.141C419.469 504.779 415.65 511.061 415.281 511.061C414.665 511.061 411.832 506.38 390.273 469.793C383.498 458.213 377.585 448.358 377.092 447.865C376.599 447.372 368.592 460.061 359.23 476.199C349.867 492.337 338.78 511.308 334.592 518.453C330.403 525.598 322.396 539.395 316.729 549.25C311.186 559.105 299.729 578.692 291.475 592.982C283.222 607.149 272.134 626.49 266.837 635.852C261.663 645.215 256.859 652.483 256.366 651.867C255.258 650.635 247.127 623.041 244.663 611.707C238.996 586.577 236.533 548.265 238.996 522.148C247.989 427.169 299.113 340.813 377.708 287.842C418.114 260.494 474.042 241.522 526.767 237.088C538.347 236.102 574.195 237.58 587.5 239.428ZM569.021 421.133C599.819 499.112 607.457 518.33 611.152 528.308C614.602 537.67 630 576.721 648.725 623.78C654.392 637.947 659.443 650.758 659.935 652.113C660.305 653.469 635.421 629.323 604.5 598.526L548.326 542.475L548.572 494.677C548.818 468.438 548.449 447.003 547.956 447.003C547.34 447.003 529.108 464.126 507.303 484.945C457.288 532.866 452.115 537.547 455.81 532.373C458.52 528.431 486.731 478.293 519.622 418.669C543.644 375.183 547.34 369.147 548.326 370.256C548.818 370.748 558.181 393.662 569.021 421.133ZM472.564 700.773C515.188 706.563 558.427 720.484 589.225 738.469L598.587 744.013L619.16 745.122C656.117 747.216 691.472 753.991 720.175 764.339C734.342 769.39 748.262 775.919 748.755 777.767C748.878 778.383 743.828 782.941 737.422 787.868L725.842 796.738L713.523 791.811C679.646 778.506 638.624 771.854 590.21 771.854C535.391 771.854 482.05 782.325 434.375 802.405C427.723 805.238 408.136 814.97 403.455 817.927L399.759 820.144L387.44 812.014C380.788 807.579 374.751 803.514 374.259 803.021C372.904 801.789 389.288 791.811 403.824 785.035C437.948 769.144 472.071 758.426 509.521 751.774C516.296 750.665 525.166 749.064 529.231 748.201L536.623 746.846L531.695 744.259C519.992 738.346 495.6 732.064 470.839 728.614C454.825 726.274 420.824 726.027 403.208 727.998C378.694 730.585 343.954 740.194 325.352 749.433L316.113 753.868L313.033 750.296C311.309 748.325 307.244 743.52 303.917 739.701C300.591 735.882 298.127 732.556 298.374 732.31C300.591 730.339 314.881 723.317 326.338 718.636C349.005 709.397 379.309 702.498 410.353 699.541C424.274 698.31 458.644 698.926 472.564 700.773ZM635.174 811.028C650.203 812.999 684.943 819.775 686.052 820.883C689.255 824.086 648.972 839.608 619.16 846.753C588.485 854.144 577.891 855.376 546.478 855.253C509.644 855.253 485.253 851.558 452.854 841.456L445.462 839.115L451.622 836.282C484.76 821.499 523.441 812.137 566.188 808.688C578.507 807.702 620.761 809.18 635.174 811.028Z" fill="black"/>
</svg>
