<svg xmlns="http://www.w3.org/2000/svg" width="330" height="330" viewBox="0 0 330 330" fill="none"><path d="M155.412 0.124003C119.576 2.8362 85.1253 16.5703 60.1961 37.9794C39.8834 55.4644 26.2647 73.2957 15.7045 96.1475C-0.85727 131.868 -4.31965 168.511 5.31731 205.905C17.7819 254.321 52.4634 295.235 97.8784 315.086C119.98 324.78 141.389 329.339 164.414 329.339C216.061 329.339 264.996 304.641 296.504 262.688C318.259 233.72 329.396 200.481 329.396 164.645C329.396 149.237 328.127 139.773 323.914 124.424C315.374 93.3775 300.37 67.9867 277.345 45.5966C252.532 21.5331 219.12 5.43299 185.304 1.27813C178.148 0.354829 160.721 -0.279941 155.412 0.124003ZM183.861 20.8406C205.905 24.0145 228.814 33.1898 247.396 46.2314C269.209 61.5236 288.252 85.9334 298.697 112.017C303.89 124.885 308.045 142.37 309.257 156.278C310.411 170.012 308.276 188.766 303.602 204.924C302.505 208.733 301.467 212.426 301.293 213.118C301.12 213.869 300.832 214.446 300.601 214.446C300.428 214.388 298.062 210.579 295.35 205.905C292.695 201.231 287.386 192.113 283.578 185.592C279.827 179.072 273.364 167.934 269.209 160.779C259.514 143.928 245.722 120.384 244.857 119.057C244.222 118.191 243.183 119.634 236.662 130.598C232.507 137.523 228.468 144.275 227.718 145.602L226.333 148.083L220.62 138.677C217.504 133.541 210.81 122.288 205.732 113.748C200.653 105.15 190.959 88.9342 184.265 77.6814C177.513 66.4287 170.531 54.5988 168.742 51.425C166.895 48.2511 165.222 45.4812 164.991 45.1927C164.529 44.7311 160.951 50.3863 153.565 62.9663C149.699 69.6025 142.659 81.49 128.578 105.092C119.749 119.98 111.612 133.772 107.169 141.562C105.149 145.14 103.36 148.083 103.187 148.083C102.899 148.083 101.572 145.89 91.473 128.752C88.2991 123.327 85.5292 118.711 85.2984 118.48C85.0676 118.249 81.3166 124.193 76.931 131.752C72.5453 139.312 67.3517 148.199 65.3897 151.546C63.4277 154.893 59.6767 161.356 57.0222 165.972C54.4255 170.589 49.0588 179.764 45.1924 186.458C41.3261 193.094 36.1325 202.154 33.6512 206.54C31.2275 210.925 28.9769 214.33 28.7461 214.042C28.2268 213.465 24.4181 200.538 23.264 195.229C20.6095 183.457 19.4554 165.511 20.6095 153.277C24.8221 108.785 48.7702 68.333 85.5869 43.5192C104.515 30.7084 130.713 21.8216 155.412 19.7442C160.836 19.2825 177.629 19.975 183.861 20.8406ZM175.205 105.958C189.632 142.486 193.209 151.488 194.941 156.162C196.556 160.548 203.77 178.841 212.541 200.885C215.195 207.521 217.561 213.522 217.792 214.157C217.965 214.792 206.309 203.481 191.824 189.055L165.51 162.798L165.626 140.408C165.741 128.117 165.568 118.076 165.337 118.076C165.049 118.076 156.508 126.097 146.294 135.849C122.865 158.297 120.442 160.49 122.173 158.066C123.442 156.22 136.657 132.733 152.065 104.803C163.317 84.4331 165.049 81.6054 165.51 82.1248C165.741 82.3556 170.127 93.089 175.205 105.958ZM130.021 236.951C149.987 239.663 170.242 246.184 184.669 254.609L189.054 257.206L198.691 257.725C216.003 258.706 232.565 261.88 246.011 266.728C252.647 269.094 259.168 272.152 259.399 273.018C259.456 273.306 257.09 275.441 254.09 277.749L248.665 281.904L242.895 279.596C227.025 273.364 207.809 270.248 185.13 270.248C159.451 270.248 134.464 275.153 112.132 284.559C109.016 285.886 99.8404 290.445 97.6476 291.83L95.9164 292.869L90.1457 289.06C87.0296 286.983 84.202 285.078 83.9711 284.847C83.3364 284.27 91.0113 279.596 97.8207 276.422C113.805 268.978 129.79 263.958 147.333 260.842C150.507 260.322 154.661 259.572 156.566 259.168L160.028 258.533L157.72 257.321C152.238 254.552 140.812 251.608 129.213 249.993C121.711 248.896 105.784 248.781 97.5321 249.704C86.0486 250.916 69.7754 255.417 61.0617 259.745L56.7337 261.823L55.2911 260.149C54.4832 259.226 52.5789 256.975 51.0208 255.186C49.4627 253.397 48.3086 251.839 48.424 251.724C49.4627 250.801 56.1567 247.511 61.5233 245.319C72.1413 240.991 86.3371 237.759 100.879 236.374C107.4 235.797 123.5 236.085 130.021 236.951ZM206.193 288.598C213.233 289.522 229.507 292.695 230.026 293.215C231.526 294.715 212.656 301.986 198.691 305.333C184.323 308.796 179.36 309.373 164.645 309.315C147.39 309.315 135.965 307.584 120.788 302.852L117.325 301.755L120.211 300.428C135.734 293.503 153.854 289.118 173.878 287.502C179.648 287.04 199.442 287.733 206.193 288.598Z" fill="black"></path></svg>